<?xml version="1.0" encoding="UTF-8" standalone="no"?>
<svg width="300px" height="240px" viewBox="0 0 300 240" version="1.1" xmlns="http://www.w3.org/2000/svg" xmlns:xlink="http://www.w3.org/1999/xlink" xmlns:sketch="http://www.bohemiancoding.com/sketch/ns">
    <!-- Generator: Sketch 3.5.2 (25235) - http://www.bohemiancoding.com/sketch -->
    <title>mba-monowhite-vert</title>
    <desc>Created with Sketch.</desc>
    <defs></defs>
    <g id="Page-1" stroke="none" stroke-width="1" fill="none" fill-rule="evenodd" sketch:type="MSPage">
        <g id="Tablet" sketch:type="MSArtboardGroup" transform="translate(-874.000000, -267.000000)">
            <g id="mba-monowhite-vert" sketch:type="MSLayerGroup" transform="translate(874.000000, 267.000000)">
                <g id="🗺-5-+-M-+-clipboard-+-Group-2" transform="translate(67.485822, 0.000000)">
                    <g id="🗺-5-+-M-+-clipboard" fill="#FFFFFF" sketch:type="MSShapeGroup">
                        <path d="M56.9102949,101.917391 C56.9209041,101.922057 56.9263527,101.924408 56.9263527,101.924408 C56.9263527,101.924408 61.1540865,88.1544269 66.5302544,81.5441636 C67.2874574,80.6131452 68.2069254,79.6034708 69.2410331,78.5457603 L69.2410331,99.7061081 C69.2410331,103.160252 72.0339321,105.945705 75.4791476,105.945705 L87.7871811,105.945705 C90.4523996,105.945705 92.7291717,104.271942 93.6219836,101.917391 C93.6325928,101.922057 93.6380414,101.924408 93.6380414,101.924408 C93.6380414,101.924408 97.8657752,88.1544269 103.241943,81.5441636 C103.999146,80.6131452 104.918614,79.6034708 105.952722,78.5457603 L105.952722,99.7061081 C105.952722,103.160252 108.745621,105.945705 112.190836,105.945705 L124.49887,105.945705 C127.942092,105.945705 130.736984,103.152142 130.736984,99.7061081 L130.736984,63.3110791 C130.736984,59.8569354 127.944085,57.0714821 124.49887,57.0714821 L112.190836,57.0714821 C109.441886,57.0714821 107.106172,58.8520653 106.276015,61.3236974 L106.262525,61.3247768 C106.262525,61.3247768 101.750846,74.8657658 96.1939185,81.5441636 C95.5709495,82.292857 94.8393969,83.094716 94.0252955,83.9330437 L94.0252955,63.3110791 C94.0252955,59.8569354 91.2323966,57.0714821 87.7871811,57.0714821 L75.4791476,57.0714821 C72.730197,57.0714821 70.3944837,58.8520653 69.5643266,61.3236974 L69.5508364,61.3247768 C69.5508364,61.3247768 65.0391569,74.8657658 59.4822298,81.5441636 C58.8592608,82.292857 58.1277082,83.094716 57.3136068,83.9330437 L57.3136068,63.3110791 C57.3136068,59.8569354 54.5207079,57.0714821 51.0754924,57.0714821 L38.7674589,57.0714821 C35.324237,57.0714821 32.5293444,59.8650448 32.5293444,63.3110791 L32.5293444,99.7061081 C32.5293444,103.160252 35.3222434,105.945705 38.7674589,105.945705 L51.0754924,105.945705 C53.7407109,105.945705 56.017483,104.271942 56.9102949,101.917391 Z M81.5557135,162.553191 C148.250164,162.553191 163.111427,147.74279 163.111427,81.2765957 C163.111427,15.1716312 148.250164,0 81.5557135,0 C15.2237332,0 0,15.1716312 0,81.2765957 C0,147.74279 15.2237332,162.553191 81.5557135,162.553191 Z M45.0008269,102.183533 C46.3696239,102.183533 47.4792531,101.075597 47.4792531,99.7088892 C47.4792531,98.3421809 46.3696239,97.234245 45.0008269,97.234245 C43.6320298,97.234245 42.5224006,98.3421809 42.5224006,99.7088892 C42.5224006,101.075597 43.6320298,102.183533 45.0008269,102.183533 Z" id="🗺-5"></path>
                    </g>
                    <g id="Group-2" transform="translate(32.529344, 57.071482)"></g>
                </g>
                <path d="M74.6486635,212.490487 C74.6486635,212.490487 77.8726922,208.339643 82.8327363,208.339643 C88.4541196,208.339643 91.6781483,212.409098 91.6781483,220.466618 C91.6781483,228.442749 88.536787,232.512203 82.8327363,232.512203 C78.038027,232.512203 74.6486635,229.338029 74.6486635,223.722181 L74.6486635,212.490487 Z M83.7420777,200.851846 C79.7740424,200.851846 76.3020116,202.479628 74.6486635,204.10741 L74.6486635,185.387919 C74.6486635,182.946246 72.6646459,180.992908 70.1846239,180.992908 C67.7046018,180.992908 65.7205842,182.946246 65.7205842,185.387919 L65.7205842,223.722181 C65.7205842,234.546931 72.8299807,240 82.8327363,240 C93.9928355,240 100.52356,233.73304 100.52356,220.466618 C100.52356,207.200196 94.1581703,200.851846 83.7420777,200.851846 L83.7420777,200.851846 Z M121.934417,208.665199 C126.729126,208.665199 129.457151,211.106872 129.457151,214.769381 L129.457151,216.234385 L118.627721,216.234385 C111.435657,216.234385 105.235602,220.141061 105.235602,227.710247 C105.235602,235.035265 110.608983,240 118.710389,240 C123.670433,240 127.307798,238.779164 129.539818,235.279433 C129.539818,237.639716 131.523836,239.593055 133.92119,239.593055 C136.318545,239.593055 138.302563,237.639716 138.302563,235.279433 L138.302563,214.443825 C138.302563,205.816581 132.185175,200.851846 121.934417,200.851846 C114.825021,200.851846 110.691651,203.537686 108.376963,206.060748 C107.632957,206.874639 107.302287,207.851308 107.302287,208.746588 C107.302287,210.862705 109.038303,212.571876 111.187655,212.571876 C112.179664,212.571876 112.841003,212.327708 113.667677,211.757985 C115.734362,210.292981 118.297052,208.665199 121.934417,208.665199 L121.934417,208.665199 Z M121.025076,232.674982 C116.395701,232.674982 114.163681,230.803033 114.163681,227.710247 C114.163681,224.78024 116.147699,223.071069 119.785065,223.071069 L129.457151,223.071069 L129.457151,225.349963 C129.457151,229.907753 125.406448,232.674982 121.025076,232.674982 L121.025076,232.674982 Z M176.164233,208.421032 C174.676219,204.10741 170.377514,200.851846 162.606778,200.851846 C155.084045,200.851846 147.809314,203.842896 147.809314,215.257716 L147.809314,238.372218 C147.809314,239.023331 148.387986,239.593055 149.049325,239.593055 C149.710664,239.593055 150.289336,239.023331 150.289336,238.372218 L150.289336,215.257716 C150.289336,208.258254 153.926702,202.886574 162.606779,202.886574 C172.361532,202.886574 174.593552,208.665199 174.593552,215.257716 L174.593552,238.372218 C174.593552,239.023331 175.172224,239.593055 175.833563,239.593055 C176.494902,239.593055 177.073574,239.023331 177.073574,238.372218 L177.073574,215.339105 C177.073574,208.665199 180.462937,202.886574 189.143015,202.886574 C198.732433,202.886574 201.37779,208.665199 201.37779,215.257716 L201.37779,238.372218 C201.37779,239.023331 201.956462,239.593055 202.617801,239.593055 C203.27914,239.593055 203.857812,239.023331 203.857812,238.372218 L203.857812,215.257716 C203.857812,207.769919 201.04712,200.851846 189.143015,200.851846 C181.372279,200.851846 177.321576,205.00269 176.164233,208.421032 Z M228.988702,200.851846 C218.407275,200.851846 212.041885,207.037417 212.041885,220.385229 C212.041885,233.73304 218.407275,240 228.988702,240 C239.57013,240 245.935519,233.73304 245.935519,220.385229 C245.935519,207.037417 239.57013,200.851846 228.988702,200.851846 L228.988702,200.851846 Z M228.988702,237.883884 C219.729953,237.883884 214.687242,232.512203 214.687242,220.385229 C214.687242,208.421032 219.729953,202.967963 228.988702,202.967963 C238.247451,202.967963 243.290163,208.421032 243.290163,220.385229 C243.290163,232.512203 238.247451,237.883884 228.988702,237.883884 L228.988702,237.883884 Z M257.426288,212.490487 C257.426288,212.490487 260.980986,202.967963 270.901075,202.967963 C280.242491,202.967963 285.202535,208.339643 285.202535,220.385229 C285.202535,232.593593 280.242491,237.883884 270.901075,237.883884 C263.130339,237.883884 257.426288,233.73304 257.426288,224.210516 L257.426288,212.490487 Z M270.901075,200.851846 C261.063654,200.851846 257.426288,208.58381 257.426288,208.58381 L257.426288,182.213744 C257.426288,181.562631 256.847616,180.992908 256.186277,180.992908 C255.524938,180.992908 254.946266,181.562631 254.946266,182.213744 L254.946266,224.210516 C254.946266,234.791098 261.642326,240 270.901075,240 C281.482502,240 287.847892,233.73304 287.847892,220.385229 C287.847892,207.037417 281.482502,200.851846 270.901075,200.851846 L270.901075,200.851846 Z M298.511987,201.340181 C297.850648,201.340181 297.271976,201.909905 297.271976,202.561017 L297.271976,238.372218 C297.271976,239.023331 297.850648,239.593055 298.511987,239.593055 C299.173326,239.593055 299.751998,239.023331 299.751998,238.372218 L299.751998,202.561017 C299.751998,201.909905 299.173326,201.340181 298.511987,201.340181 L298.511987,201.340181 Z M298.511987,190.759599 C299.503996,190.759599 300,190.271264 300,189.050428 C300,187.829592 299.503996,187.341257 298.511987,187.341257 C297.519978,187.341257 297.023974,187.829592 297.023974,189.050428 C297.023974,190.271264 297.519978,190.759599 298.511987,190.759599 Z M28.8302563,239.551321 C28.7959104,239.552013 28.7614643,239.55236 28.726922,239.55236 L28.726922,239.548192 C26.3442559,239.4518 24.4695508,237.693583 24.4695508,235.320127 L24.4695508,216.519247 C24.4695508,211.961458 22.1548636,208.787283 16.2028107,208.787283 C10.8294296,208.787283 8.92807936,211.961458 8.92807936,216.600636 L8.92807936,235.320127 C8.92807936,237.7618 7.10939653,239.55236 4.46403968,239.55236 C1.98401764,239.55236 0,237.7618 0,235.320127 L0,214.972854 C0,207.892003 4.96004283,200.811152 16.2028094,200.811152 C21.7516404,200.811152 26.1728107,201.445566 28.8302563,204.827907 C31.4877019,201.445566 35.9088721,200.811152 41.4577031,200.811152 C52.7004697,200.811152 57.6605125,207.892003 57.6605125,214.972854 L57.6605125,235.320127 C57.6605125,237.7618 55.6764949,239.55236 53.1964729,239.55236 C50.551116,239.55236 48.7324332,237.7618 48.7324332,235.320127 L48.7324332,216.600636 C48.7324332,211.961458 46.8310829,208.787283 41.4577018,208.787283 C35.5056489,208.787283 33.1909617,211.961458 33.1909617,216.519247 L33.1909617,235.320127 C33.1909617,237.693583 31.3162567,239.4518 28.9335929,239.548192 L28.9335905,239.55236 C28.8990482,239.55236 28.8646021,239.552013 28.8302563,239.551321 L28.8302563,239.551321 Z" id="mbamobi" fill="#FFFFFF" sketch:type="MSShapeGroup"></path>
            </g>
        </g>
    </g>
</svg>